<?xml version="1.0" encoding="UTF-8" ?>
<!DOCTYPE svg PUBLIC "-//W3C//DTD SVG 1.1//EN" "http://www.w3.org/Graphics/SVG/1.1/DTD/svg11.dtd">
<svg xmlns="http://www.w3.org/2000/svg" xmlns:xlink="http://www.w3.org/1999/xlink">
    <symbol id="dashboard">
    <path stroke-linecap="round" stroke-linejoin="round" d="M2.25 7.125C2.25 6.504 2.754 6 3.375 6h6c.621 0 1.125.504 1.125 1.125v3.75c0 .621-.504 1.125-1.125 1.125h-6a1.125 1.125 0 0 1-1.125-1.125v-3.75ZM14.25 8.625c0-.621.504-1.125 1.125-1.125h5.25c.621 0 1.125.504 1.125 1.125v8.25c0 .621-.504 1.125-1.125 1.125h-5.25a1.125 1.125 0 0 1-1.125-1.125v-8.25ZM3.75 16.125c0-.621.504-1.125 1.125-1.125h5.25c.621 0 1.125.504 1.125 1.125v2.25c0 .621-.504 1.125-1.125 1.125h-5.25a1.125 1.125 0 0 1-1.125-1.125v-2.25Z" />
    </symbol>
    <symbol id="programs">
    <path stroke-linecap="round" stroke-linejoin="round" d="M3.75 6A2.25 2.25 0 0 1 6 3.75h2.25A2.25 2.25 0 0 1 10.5 6v2.25a2.25 2.25 0 0 1-2.25 2.25H6a2.25 2.25 0 0 1-2.25-2.25V6ZM3.75 15.75A2.25 2.25 0 0 1 6 13.5h2.25a2.25 2.25 0 0 1 2.25 2.25V18a2.25 2.25 0 0 1-2.25 2.25H6A2.25 2.25 0 0 1 3.75 18v-2.25ZM13.5 6a2.25 2.25 0 0 1 2.25-2.25H18A2.25 2.25 0 0 1 20.25 6v2.25A2.25 2.25 0 0 1 18 10.5h-2.25a2.25 2.25 0 0 1-2.25-2.25V6ZM13.5 15.75a2.25 2.25 0 0 1 2.25-2.25H18a2.25 2.25 0 0 1 2.25 2.25V18A2.25 2.25 0 0 1 18 20.25h-2.25A2.25 2.25 0 0 1 13.5 18v-2.25Z" />
    </symbol>
    <symbol id="general_intelligence">
    <path stroke-linecap="round" stroke-linejoin="round" d="M14.857 17.082a23.848 23.848 0 0 0 5.454-1.31A8.967 8.967 0 0 1 18 9.75V9A6 6 0 0 0 6 9v.75a8.967 8.967 0 0 1-2.312 6.022c1.733.64 3.56 1.085 5.455 1.31m5.714 0a24.255 24.255 0 0 1-5.714 0m5.714 0a3 3 0 1 1-5.714 0M3.124 7.5A8.969 8.969 0 0 1 5.292 3m13.416 0a8.969 8.969 0 0 1 2.168 4.5" />
    </symbol>
    <symbol id="demolition">
    <path stroke-linecap="round" stroke-linejoin="round" d="M14.25 6.087c0-.355.186-.676.401-.959.221-.29.349-.634.349-1.003 0-1.036-1.007-1.875-2.25-1.875s-2.25.84-2.25 1.875c0 .369.128.713.349 1.003.215.283.401.604.401.959v0a.64.64 0 0 1-.657.643 48.39 48.39 0 0 1-4.163-.3c.186 1.613.293 3.25.315 4.907a.656.656 0 0 1-.658.663v0c-.355 0-.676-.186-.959-.401a1.647 1.647 0 0 0-1.003-.349c-1.036 0-1.875 1.007-1.875 2.25s.84 2.25 1.875 2.25c.369 0 .713-.128 1.003-.349.283-.215.604-.401.959-.401v0c.31 0 .555.26.532.57a48.039 48.039 0 0 1-.642 5.056c1.518.19 3.058.309 4.616.354a.64.64 0 0 0 .657-.643v0c0-.355-.186-.676-.401-.959a1.647 1.647 0 0 1-.349-1.003c0-1.035 1.008-1.875 2.25-1.875 1.243 0 2.25.84 2.25 1.875 0 .369-.128.713-.349 1.003-.215.283-.4.604-.4.959v0c0 .333.277.599.61.58a48.1 48.1 0 0 0 5.427-.63 48.05 48.05 0 0 0 .582-4.717.532.532 0 0 0-.533-.57v0c-.355 0-.676.186-.959.401-.29.221-.634.349-1.003.349-1.035 0-1.875-1.007-1.875-2.25s.84-2.25 1.875-2.25c.37 0 .713.128 1.003.349.283.215.604.401.96.401v0a.656.656 0 0 0 .658-.663 48.422 48.422 0 0 0-.37-5.36c-1.886.342-3.81.574-5.766.689a.578.578 0 0 1-.61-.58v0Z" />
    </symbol>
    <symbol id="search_dsi">
      <path stroke-linecap="round" stroke-linejoin="round" d="M12 7.5h1.5m-1.5 3h1.5m-7.5 3h7.5m-7.5 3h7.5m3-9h3.375c.621 0 1.125.504 1.125 1.125V18a2.25 2.25 0 0 1-2.25 2.25M16.5 7.5V18a2.25 2.25 0 0 0 2.25 2.25M16.5 7.5V4.875c0-.621-.504-1.125-1.125-1.125H4.125C3.504 3.75 3 4.254 3 4.875V18a2.25 2.25 0 0 0 2.25 2.25h13.5M6 7.5h3v3H6v-3Z" />
    </symbol>
    <symbol id="closenav">
      <path stroke-linecap="round" stroke-linejoin="round" d="M8.25 9V5.25A2.25 2.25 0 0 1 10.5 3h6a2.25 2.25 0 0 1 2.25 2.25v13.5A2.25 2.25 0 0 1 16.5 21h-6a2.25 2.25 0 0 1-2.25-2.25V15m-3 0-3-3m0 0 3-3m-3 3H15" />
    </symbol>
    <symbol id="opennav">
      <path stroke-linecap="round" stroke-linejoin="round" d="m5.25 4.5 7.5 7.5-7.5 7.5m6-15 7.5 7.5-7.5 7.5" />
    </symbol>
</svg>