<?xml version="1.0" encoding="UTF-8" ?>
<!DOCTYPE svg PUBLIC "-//W3C//DTD SVG 1.1//EN" "http://www.w3.org/Graphics/SVG/1.1/DTD/svg11.dtd">
<svg xmlns="http://www.w3.org/2000/svg" xmlns:xlink="http://www.w3.org/1999/xlink">
    <symbol id="dashboard">
    <path stroke-linecap="round" stroke-linejoin="round" d="M2.25 7.125C2.25 6.504 2.754 6 3.375 6h6c.621 0 1.125.504 1.125 1.125v3.75c0 .621-.504 1.125-1.125 1.125h-6a1.125 1.125 0 0 1-1.125-1.125v-3.75ZM14.25 8.625c0-.621.504-1.125 1.125-1.125h5.25c.621 0 1.125.504 1.125 1.125v8.25c0 .621-.504 1.125-1.125 1.125h-5.25a1.125 1.125 0 0 1-1.125-1.125v-8.25ZM3.75 16.125c0-.621.504-1.125 1.125-1.125h5.25c.621 0 1.125.504 1.125 1.125v2.25c0 .621-.504 1.125-1.125 1.125h-5.25a1.125 1.125 0 0 1-1.125-1.125v-2.25Z" />
    </symbol>
    <symbol id="programs">
    <path stroke-linecap="round" stroke-linejoin="round" d="M3.75 6A2.25 2.25 0 0 1 6 3.75h2.25A2.25 2.25 0 0 1 10.5 6v2.25a2.25 2.25 0 0 1-2.25 2.25H6a2.25 2.25 0 0 1-2.25-2.25V6ZM3.75 15.75A2.25 2.25 0 0 1 6 13.5h2.25a2.25 2.25 0 0 1 2.25 2.25V18a2.25 2.25 0 0 1-2.25 2.25H6A2.25 2.25 0 0 1 3.75 18v-2.25ZM13.5 6a2.25 2.25 0 0 1 2.25-2.25H18A2.25 2.25 0 0 1 20.25 6v2.25A2.25 2.25 0 0 1 18 10.5h-2.25a2.25 2.25 0 0 1-2.25-2.25V6ZM13.5 15.75a2.25 2.25 0 0 1 2.25-2.25H18a2.25 2.25 0 0 1 2.25 2.25V18A2.25 2.25 0 0 1 18 20.25h-2.25A2.25 2.25 0 0 1 13.5 18v-2.25Z" />
    </symbol>
    <symbol id="general_intelligence">
    <path stroke-linecap="round" stroke-linejoin="round" d="M14.857 17.082a23.848 23.848 0 0 0 5.454-1.31A8.967 8.967 0 0 1 18 9.75V9A6 6 0 0 0 6 9v.75a8.967 8.967 0 0 1-2.312 6.022c1.733.64 3.56 1.085 5.455 1.31m5.714 0a24.255 24.255 0 0 1-5.714 0m5.714 0a3 3 0 1 1-5.714 0M3.124 7.5A8.969 8.969 0 0 1 5.292 3m13.416 0a8.969 8.969 0 0 1 2.168 4.5" />
    </symbol>
    <symbol id="demolition">
    <path stroke-linecap="round" stroke-linejoin="round" d="M14.25 6.087c0-.355.186-.676.401-.959.221-.29.349-.634.349-1.003 0-1.036-1.007-1.875-2.25-1.875s-2.25.84-2.25 1.875c0 .369.128.713.349 1.003.215.283.401.604.401.959v0a.64.64 0 0 1-.657.643 48.39 48.39 0 0 1-4.163-.3c.186 1.613.293 3.25.315 4.907a.656.656 0 0 1-.658.663v0c-.355 0-.676-.186-.959-.401a1.647 1.647 0 0 0-1.003-.349c-1.036 0-1.875 1.007-1.875 2.25s.84 2.25 1.875 2.25c.369 0 .713-.128 1.003-.349.283-.215.604-.401.959-.401v0c.31 0 .555.26.532.57a48.039 48.039 0 0 1-.642 5.056c1.518.19 3.058.309 4.616.354a.64.64 0 0 0 .657-.643v0c0-.355-.186-.676-.401-.959a1.647 1.647 0 0 1-.349-1.003c0-1.035 1.008-1.875 2.25-1.875 1.243 0 2.25.84 2.25 1.875 0 .369-.128.713-.349 1.003-.215.283-.4.604-.4.959v0c0 .333.277.599.61.58a48.1 48.1 0 0 0 5.427-.63 48.05 48.05 0 0 0 .582-4.717.532.532 0 0 0-.533-.57v0c-.355 0-.676.186-.959.401-.29.221-.634.349-1.003.349-1.035 0-1.875-1.007-1.875-2.25s.84-2.25 1.875-2.25c.37 0 .713.128 1.003.349.283.215.604.401.96.401v0a.656.656 0 0 0 .658-.663 48.422 48.422 0 0 0-.37-5.36c-1.886.342-3.81.574-5.766.689a.578.578 0 0 1-.61-.58v0Z" />
    </symbol>
    <symbol id="search_dsi">
      <path stroke-linecap="round" stroke-linejoin="round" d="M12 7.5h1.5m-1.5 3h1.5m-7.5 3h7.5m-7.5 3h7.5m3-9h3.375c.621 0 1.125.504 1.125 1.125V18a2.25 2.25 0 0 1-2.25 2.25M16.5 7.5V18a2.25 2.25 0 0 0 2.25 2.25M16.5 7.5V4.875c0-.621-.504-1.125-1.125-1.125H4.125C3.504 3.75 3 4.254 3 4.875V18a2.25 2.25 0 0 0 2.25 2.25h13.5M6 7.5h3v3H6v-3Z" />
    </symbol>
    <symbol id="closenav">
      <path stroke-linecap="round" stroke-linejoin="round" d="M8.25 9V5.25A2.25 2.25 0 0 1 10.5 3h6a2.25 2.25 0 0 1 2.25 2.25v13.5A2.25 2.25 0 0 1 16.5 21h-6a2.25 2.25 0 0 1-2.25-2.25V15m-3 0-3-3m0 0 3-3m-3 3H15" />
    </symbol>
    <symbol id="opennav">
      <path stroke-linecap="round" stroke-linejoin="round" d="m5.25 4.5 7.5 7.5-7.5 7.5m6-15 7.5 7.5-7.5 7.5" />
    </symbol>
    <symbol id="chat">
      <path stroke-linecap="round" stroke-linejoin="round" d="M8.625 9.75a.375.375 0 1 1-.75 0 .375.375 0 0 1 .75 0Zm0 0H8.25m4.125 0a.375.375 0 1 1-.75 0 .375.375 0 0 1 .75 0Zm0 0H12m4.125 0a.375.375 0 1 1-.75 0 .375.375 0 0 1 .75 0Zm0 0h-.375m-13.5 3.01c0 1.6 1.123 2.994 2.707 3.227 1.087.16 2.185.283 3.293.369V21l4.184-4.183a1.14 1.14 0 0 1 .778-.332 48.294 48.294 0 0 0 5.83-.498c1.585-.233 2.708-1.626 2.708-3.228V6.741c0-1.602-1.123-2.995-2.707-3.228A48.394 48.394 0 0 0 12 3c-2.392 0-4.744.175-7.043.513C3.373 3.746 2.25 5.14 2.25 6.741v6.018Z" />
    </symbol>
    <symbol id="left-arrow">
      <path strokeLinecap="round" strokeLinejoin="round" d="M15.75 19.5 8.25 12l7.5-7.5" />
    </symbol>
    <symbol id="right-arrow">
      <path stroke-linecap="round" stroke-linejoin="round" d="m8.25 4.5 7.5 7.5-7.5 7.5" />
    </symbol>
    <symbol id="user">
      <path stroke-linecap="round" stroke-linejoin="round" d="M17.982 18.725A7.488 7.488 0 0 0 12 15.75a7.488 7.488 0 0 0-5.982 2.975m11.963 0a9 9 0 1 0-11.963 0m11.963 0A8.966 8.966 0 0 1 12 21a8.966 8.966 0 0 1-5.982-2.275M15 9.75a3 3 0 1 1-6 0 3 3 0 0 1 6 0Z" />
    </symbol>
    <symbol id="plus">
      <path stroke-linecap="round" stroke-linejoin="round" d="M12 9v6m3-3H9m12 0a9 9 0 1 1-18 0 9 9 0 0 1 18 0Z" />
    </symbol>
    <symbol id="filter">
      <path stroke-linecap="round" stroke-linejoin="round" d="M10.5 6h9.75M10.5 6a1.5 1.5 0 1 1-3 0m3 0a1.5 1.5 0 1 0-3 0M3.75 6H7.5m3 12h9.75m-9.75 0a1.5 1.5 0 0 1-3 0m3 0a1.5 1.5 0 0 0-3 0m-3.75 0H7.5m9-6h3.75m-3.75 0a1.5 1.5 0 0 1-3 0m3 0a1.5 1.5 0 0 0-3 0m-9.75 0h9.75" />
    </symbol>
    <symbol id="photo">
      <path stroke-linecap="round" stroke-linejoin="round" d="m2.25 15.75 5.159-5.159a2.25 2.25 0 0 1 3.182 0l5.159 5.159m-1.5-1.5 1.409-1.409a2.25 2.25 0 0 1 3.182 0l2.909 2.909m-18 3.75h16.5a1.5 1.5 0 0 0 1.5-1.5V6a1.5 1.5 0 0 0-1.5-1.5H3.75A1.5 1.5 0 0 0 2.25 6v12a1.5 1.5 0 0 0 1.5 1.5Zm10.5-11.25h.008v.008h-.008V8.25Zm.375 0a.375.375 0 1 1-.75 0 .375.375 0 0 1 .75 0Z" />
    </symbol>
    <symbol id="upload">
      <path stroke-linecap="round" stroke-linejoin="round" d="M3 16.5v2.25A2.25 2.25 0 0 0 5.25 21h13.5A2.25 2.25 0 0 0 21 18.75V16.5m-13.5-9L12 3m0 0 4.5 4.5M12 3v13.5" />
    </symbol>
</svg>
